<?xml version="1.0" encoding="UTF-8" standalone="no"?>
<!-- Created with Inkscape (http://www.inkscape.org/) -->

<svg
   width="58.978867mm"
   height="52.806107mm"
   viewBox="0 0 58.978867 52.806107"
   version="1.1"
   id="svg1"
   xmlns:inkscape="http://www.inkscape.org/namespaces/inkscape"
   xmlns:sodipodi="http://sodipodi.sourceforge.net/DTD/sodipodi-0.dtd"
   xmlns="http://www.w3.org/2000/svg"
   xmlns:svg="http://www.w3.org/2000/svg">
  <sodipodi:namedview
     id="namedview1"
     pagecolor="#ffffff"
     bordercolor="#000000"
     borderopacity="0.25"
     inkscape:showpageshadow="2"
     inkscape:pageopacity="0.0"
     inkscape:pagecheckerboard="0"
     inkscape:deskcolor="#d1d1d1"
     inkscape:document-units="mm">
    <inkscape:page
       x="0"
       y="0"
       width="58.978867"
       height="52.806107"
       id="page2"
       margin="0"
       bleed="0" />
  </sodipodi:namedview>
  <defs
     id="defs1" />
  <g
     inkscape:label="图层 1"
     inkscape:groupmode="layer"
     id="layer1"
     transform="translate(-81.227636,-106.89166)">
    <path
       stroke="#000000"
       stroke-width="0.710142"
       stroke-linejoin="bevel"
       d="m 139.50594,120.9031 c 0.70803,-1.21531 0.29914,-2.77439 -0.91614,-3.48284 -1.2128,-0.70885 -2.77199,-0.29914 -3.48078,0.91572 -0.60804,1.04135 -0.39182,2.33339 0.44627,3.12801 -3.46779,4.20428 -9.79572,11.87339 -11.32485,13.73299 -0.44874,-0.19998 -0.91372,-0.39061 -1.39653,-0.56902 0.13655,-1.42541 1.13887,-12.31206 1.6713,-18.10144 1.15511,0.0264 2.22001,-0.7385 2.52243,-1.90545 0.35197,-1.36157 -0.46578,-2.75042 -1.82655,-3.10319 -1.3624,-0.35198 -2.75085,0.4658 -3.10359,1.82695 -0.3016,1.1661 0.25767,2.35169 1.28114,2.89028 -2.50778,5.69023 -7.37376,16.73712 -7.3859,16.78292 -0.002,0.011 -7.9e-4,0.0223 -0.003,0.0333 -0.44222,-0.0532 -0.89667,-0.0992 -1.35834,-0.13737 -0.0927,-0.61212 -2.1794,-13.4175 -3.26784,-20.08672 1.25029,-0.29223 2.18265,-1.41118 2.18265,-2.75085 0,-1.56276 -1.26651,-2.82966 -2.82969,-2.82966 -1.5616,0 -2.82885,1.26693 -2.82885,2.82966 0,1.33967 0.93322,2.45859 2.1834,2.75085 -1.08281,6.63892 -3.15648,19.35752 -3.26536,20.07589 -0.48448,0.0382 -0.95676,0.0854 -1.41933,0.13859 -0.003,-0.0159 -0.002,-0.0293 -0.007,-0.0443 -0.0114,-0.0455 -4.87823,-11.09342 -7.384309,-16.78374 1.022588,-0.53691 1.581891,-1.72291 1.280319,-2.88985 -0.352796,-1.36081 -1.74207,-2.17856 -3.103616,-1.82613 -1.359958,0.3524 -2.178552,1.74164 -1.825783,3.10237 0.302392,1.16729 1.366467,1.93186 2.521611,1.90505 0.531627,5.78337 1.530694,16.64724 1.671294,18.09644 -0.474742,0.17193 -0.929958,0.35727 -1.37213,0.55155 -1.589219,-1.93182 -7.84688,-9.51685 -11.289876,-13.68803 0.839708,-0.7946 1.056746,-2.08666 0.448733,-3.12801 -0.708025,-1.21489 -2.267982,-1.62459 -3.482446,-0.91572 -1.213643,0.70845 -1.623351,2.26756 -0.914479,3.48284 0.607219,1.04008 1.839622,1.48799 2.94431,1.14782 2.070444,5.39231 8.753554,22.74789 9.009089,22.98681 h 0.0024 c 0.0049,0.0301 0.661696,4.33515 0.73406,5.76257 0.07234,1.42007 -0.545465,4.89445 -0.50075,4.91477 v 0.003 c 7.93e-4,0 0.0016,-0.002 0.0024,-0.002 4.956201,2.32082 10.600643,3.62553 16.653883,3.62553 6.10968,0 17.13833,-3.73608 17.08674,-3.76044 -0.72104,-1.52173 -0.44871,-10.54571 -0.44871,-10.54571 0.25524,-0.24144 7.02583,-17.45134 9.15062,-22.98515 1.09042,0.34129 2.3224,-0.10821 2.93004,-1.14872"
       id="path15" />
    <g
       id="g17"
       transform="matrix(0.26458333,0,0,0.26458333,-24.039417,57.462394)">
		<path
   stroke="#ffffff"
   stroke-width="2.9123"
   stroke-linecap="round"
   d="m 451.2241,367.4442 c 19.6967,-8.1172 38.1338,-11.6012 60.7258,-11.6012 21.6971,0 39.065,3.5916 57.2242,11.1158"
   id="path16" />

		<path
   stroke="#ffffff"
   stroke-width="2.9123"
   stroke-linecap="round"
   d="m 565.4272,329.408 c -16.0224,-6.1569 -35.6515,-9.7793 -56.8561,-9.7793 -21.396,0 -41.1823,3.6869 -57.2809,9.9423"
   id="path17" />

	</g>
    <path
       fill="none"
       stroke="#ffffff"
       stroke-width="0.770546"
       stroke-linecap="round"
       d="m 126.07096,151.71034 c -4.69199,-1.5502 -9.46859,-2.67526 -14.84673,-2.67526 -5.47973,0 -10.76047,1.15753 -15.711616,2.76384"
       id="path18" />
    <polygon
       fill="#ffffff"
       points="518.3616,334.3159 509.3953,329.8484 500.4604,334.3159 509.3953,338.7834 "
       id="polygon18"
       transform="matrix(0.26458333,0,0,0.26458333,-24.039417,57.462394)" />
    <polygon
       fill="#ffffff"
       points="537.2697,337.2732 546.8023,334.2844 554.9191,340.1362 545.3865,343.1249 "
       id="polygon19"
       transform="matrix(0.26458333,0,0,0.26458333,-24.039417,57.462394)" />
    <polygon
       fill="#ffffff"
       points="481.5524,337.2732 472.0197,334.2844 463.9028,340.1362 473.4355,343.1249 "
       id="polygon20"
       transform="matrix(0.26458333,0,0,0.26458333,-24.039417,57.462394)" />
  </g>
</svg>
