<?xml version="1.0" encoding="UTF-8" standalone="no"?>
<!-- Created with Inkscape (http://www.inkscape.org/) -->

<svg
   width="56.803452mm"
   height="53.538483mm"
   viewBox="0 0 56.803452 53.538483"
   version="1.1"
   id="svg1"
   xmlns:inkscape="http://www.inkscape.org/namespaces/inkscape"
   xmlns:sodipodi="http://sodipodi.sourceforge.net/DTD/sodipodi-0.dtd"
   xmlns="http://www.w3.org/2000/svg"
   xmlns:svg="http://www.w3.org/2000/svg">
  <sodipodi:namedview
     id="namedview1"
     pagecolor="#ffffff"
     bordercolor="#000000"
     borderopacity="0.25"
     inkscape:showpageshadow="2"
     inkscape:pageopacity="0.0"
     inkscape:pagecheckerboard="0"
     inkscape:deskcolor="#d1d1d1"
     inkscape:document-units="mm">
    <inkscape:page
       x="0"
       y="0"
       width="56.803452"
       height="53.538483"
       id="page2"
       margin="0"
       bleed="0" />
  </sodipodi:namedview>
  <defs
     id="defs1" />
  <g
     inkscape:label="图层 1"
     inkscape:groupmode="layer"
     id="layer1"
     transform="translate(-87.577074,-118.00417)">
    <path
       fill="#20201e"
       stroke="#20201e"
       stroke-width="0.710142"
       d="m 102.02907,124.56237 c 0,0 0.92347,-4.96271 0.92347,-5.65534 0,-0.69178 0.69178,-0.80761 1.38436,0.11584 0.69257,0.92344 3.80841,5.42358 3.80841,5.42358 l -6.11817,0.10822 z"
       id="path47" />
    <path
       fill="#20201e"
       stroke="#20201e"
       stroke-width="0.710142"
       d="m 143.42448,162.62816 c -0.31297,-2.23708 -0.74136,-4.37013 -1.26159,-6.39826 l -1.67211,-0.66821 1.11691,-1.33559 c -0.63648,-2.14527 -1.3762,-4.16526 -2.18831,-6.0638 l -1.58189,-0.44789 0.79078,-1.34847 c -0.85029,-1.80584 -1.76318,-3.4906 -2.71179,-5.05902 l -1.47463,-0.29588 0.52919,-1.21815 c -1.06248,-1.63917 -2.15503,-3.137 -3.23855,-4.49614 l -1.56075,-0.17111 0.41701,-1.21605 c -1.26651,-1.48799 -2.50129,-2.78257 -3.64344,-3.8885 l -1.56316,-0.0878 0.27313,-1.11892 c -2.78498,-2.52119 -4.75462,-3.74748 -4.75462,-3.74748 l -3.53856,1.07715 c 0,0 -1.69244,-0.92388 -3.07679,-1.84653 0,0 -0.92347,-3.07721 -1.22989,-4.77009 -0.3089,-1.69162 -1.23238,-0.92221 -1.53879,-0.46173 -0.3089,0.46173 -3.50107,4.00069 -3.50107,4.00069 0,0 -1.90955,-0.26176 -3.26869,0 -2.00052,0.38491 -2.92399,1.73148 -5.231792,3.92427 -1.684284,1.59814 -2.693908,3.0004 -3.26943,4.49982 -0.577135,1.50016 0.114618,1.50016 -0.115437,2.88454 -0.231669,1.38562 -6.463268,11.77102 -7.154254,13.04044 -0.693394,1.26934 -2.365534,5.15091 0.922628,7.6164 0.921782,0.69258 1.615202,1.03966 2.191571,1.26892 0,0 0.923475,-0.22924 1.269735,-0.69096 0.06096,-0.0829 0.09348,-0.13412 0.108929,-0.16177 0.01058,-0.0317 0.01627,-0.0325 0,0 -0.03577,0.0902 -0.117052,0.4276 0.237384,0.8527 0.577136,0.69257 1.318551,0.6422 1.731486,0.69257 0.614548,0.0781 1.729793,-0.4609 2.654115,-1.8461 0.922629,-1.38438 1.499817,-1.84692 2.192365,-2.65411 0.69178,-0.80801 4.51154,-2.5952 6.00162,-5.07775 0.34549,-0.57595 1.15348,-0.34589 1.72982,0.11583 0.57714,0.46172 3.80757,0.57796 5.19279,-1.73106 0,0 0.6544,6.07028 -2.07777,10.27102 -4.4994,6.92261 -12.116435,8.65367 -14.424712,15.11644 h 47.313792 c 0,-2.23383 -0.11787,-4.37828 -0.33086,-6.43972 l -1.57371,-0.8308 1.33186,-1.29021 z"
       id="path48" />
    <path
       fill="none"
       stroke="#ffffff"
       stroke-width="0.710142"
       d="m 119.05173,127.6922 c 0,0 20.15498,15.079 20.15498,42.31272"
       id="path49" />
    <path
       fill="none"
       stroke="#20201e"
       stroke-width="0.710142"
       d="m 93.463634,155.27803 c 0.01667,-0.025 0.0083,-0.025 0,0 z"
       id="path50" />
    <path
       fill="none"
       stroke="#ffffff"
       stroke-width="0.710142"
       d="m 114.89803,138.15549 c 0.38367,4.3071 -1.61602,7.38474 -1.69246,7.65376 0,0 4.84727,-2.49962 5.309,-5.8085"
       id="path51" />
    <path
       fill="none"
       stroke="#ffffff"
       stroke-width="0.710142"
       d="m 113.19994,145.80529 c 0,0 3.23122,1.57781 5.61631,0.57756"
       id="path52" />
    <path
       fill="none"
       stroke="#20201e"
       stroke-width="0.710142"
       d="m 93.355446,155.44451 c 0,0 2.154158,-2.77032 2.77032,-4.03924"
       id="path53" />
    <path
       fill="none"
       stroke="#ffffff"
       stroke-width="0.710142"
       d="m 106.62393,129.88142 c 0,0 -3.54827,0.0171 -4.73189,1.96072 -1.6152,2.65488 0.23167,3.0008 0.23167,3.0008 0,0 1.84526,0.57756 3.11502,-1.15345 1.35181,-1.84328 0.23003,-3.0008 0.23003,-3.0008 l 1.14871,-0.80743 z"
       id="path54" />
    <path
       fill="none"
       stroke="#ffffff"
       stroke-width="0.710142"
       d="m 89.434824,149.44288 c 1.268941,-0.34589 2.076106,-0.23087 2.652448,0.11624 0,0 -0.576342,-1.73149 0.461724,-3.23205 1.039654,-1.50016 2.771166,-1.61478 4.269317,-4.4994"
       id="path55" />
    <line
       fill="none"
       stroke="#ffffff"
       stroke-width="0.710142"
       x1="123.12218"
       y1="131.49628"
       x2="125.31971"
       y2="130.11449"
       id="line55" />
    <line
       fill="none"
       stroke="#ffffff"
       stroke-width="0.710142"
       x1="127.62547"
       y1="136.4574"
       x2="129.82303"
       y2="135.42523"
       id="line56" />
    <line
       fill="none"
       stroke="#ffffff"
       stroke-width="0.710142"
       x1="131.66264"
       y1="142.21764"
       x2="134.20145"
       y2="141.17714"
       id="line57" />
    <line
       fill="none"
       stroke="#ffffff"
       stroke-width="0.710142"
       x1="134.90067"
       y1="148.81027"
       x2="137.54771"
       y2="147.88632"
       id="line58" />
    <line
       fill="none"
       stroke="#ffffff"
       stroke-width="0.710142"
       x1="137.4312"
       y1="156.5433"
       x2="140.20308"
       y2="155.73587"
       id="line59" />
    <line
       fill="none"
       stroke="#ffffff"
       stroke-width="0.710142"
       x1="138.93784"
       y1="164.38451"
       x2="141.81796"
       y2="164.04323"
       id="line60" />
  </g>
</svg>
