<?xml version="1.0" encoding="UTF-8" standalone="no"?>
<!-- Created with Inkscape (http://www.inkscape.org/) -->

<svg
   width="42.714123mm"
   height="55.6623mm"
   viewBox="0 0 42.714123 55.6623"
   version="1.1"
   id="svg1"
   xmlns:inkscape="http://www.inkscape.org/namespaces/inkscape"
   xmlns:sodipodi="http://sodipodi.sourceforge.net/DTD/sodipodi-0.dtd"
   xmlns="http://www.w3.org/2000/svg"
   xmlns:svg="http://www.w3.org/2000/svg">
  <sodipodi:namedview
     id="namedview1"
     pagecolor="#ffffff"
     bordercolor="#000000"
     borderopacity="0.25"
     inkscape:showpageshadow="2"
     inkscape:pageopacity="0.0"
     inkscape:pagecheckerboard="0"
     inkscape:deskcolor="#d1d1d1"
     inkscape:document-units="mm">
    <inkscape:page
       x="0"
       y="0"
       width="42.714123"
       height="55.6623"
       id="page2"
       margin="0"
       bleed="0" />
  </sodipodi:namedview>
  <defs
     id="defs1" />
  <g
     inkscape:label="图层 1"
     inkscape:groupmode="layer"
     id="layer1"
     transform="translate(-74.470041,-85.868325)">
    <g
       id="g29"
       transform="matrix(0.26458333,0,0,0.26458333,276.13321,36.420732)"
       inkscape:export-filename="g29.png"
       inkscape:export-xdpi="96"
       inkscape:export-ydpi="96">
		<path
   stroke="#000000"
   stroke-width="2.684"
   stroke-linecap="square"
   d="m -607.03521,374.40823 h -3.0493 v -18.3175 l -14.6781,-16.437 h -0.149 v -96.9625 h 0.149 l 19.0977,-18.2668 h 0.1213 v -31.2504 c 0,-2.7313 -2.1199,-4.9435 -4.7298,-4.9435 h -26.4209 v 16.9854 l -14.8288,4.9126 -13.6644,-4.9126 v -16.9854 h -32.5652 v 16.9854 l -13.6672,4.9126 -14.8272,-4.9126 v -16.9854 h -26.4162 c -2.6115,0 -4.7282,2.2121 -4.7282,4.9435 v 31.2504 h 0.0538 l 19.1653,18.2668 v 96.9625 l -14.6797,16.437 v 18.3175 h -3.0524 c -2.7313,0 -4.945,2.2152 -4.945,4.9494 v 11.6226 c 0,2.7282 2.2136,4.9435 4.945,4.9435 h 148.8636 c 2.7344,0 4.9466,-2.2152 4.9466,-4.9435 v -11.6226 c 0,-2.7057 -2.2148,-4.9394 -4.9488,-4.9394 z"
   id="path25"
   inkscape:export-filename="black\path25.svg"
   inkscape:export-xdpi="96"
   inkscape:export-ydpi="96" />

		
			<line
   fill="none"
   stroke="#ffffff"
   stroke-width="2.684"
   stroke-linecap="round"
   x1="-748.01459"
   y1="374.40823"
   x2="-616.00781"
   y2="374.40823"
   id="line25" />

		
			<line
   fill="none"
   stroke="#ffffff"
   stroke-width="2.684"
   stroke-linecap="round"
   x1="-747.43262"
   y1="356.09793"
   x2="-616.58667"
   y2="356.09793"
   id="line26" />

		
			<line
   fill="none"
   stroke="#ffffff"
   stroke-width="2.684"
   stroke-linecap="round"
   x1="-630.54272"
   y1="339.67542"
   x2="-734.63739"
   y2="339.67542"
   id="line27" />

		
			<line
   fill="none"
   stroke="#ffffff"
   stroke-width="2.684"
   stroke-linecap="round"
   x1="-734.05847"
   y1="242.71283"
   x2="-629.96069"
   y2="242.71283"
   id="line28" />

		
			<line
   fill="none"
   stroke="#ffffff"
   stroke-width="2.684"
   stroke-linecap="round"
   x1="-750.92163"
   y1="224.43414"
   x2="-609.61182"
   y2="224.43414"
   id="line29" />

	</g>
  </g>
</svg>
