<?xml version="1.0" encoding="UTF-8" standalone="no"?>
<!-- Created with Inkscape (http://www.inkscape.org/) -->

<svg
   width="53.089024mm"
   height="51.298809mm"
   viewBox="0 0 53.089024 51.298809"
   version="1.1"
   id="svg1"
   xmlns:inkscape="http://www.inkscape.org/namespaces/inkscape"
   xmlns:sodipodi="http://sodipodi.sourceforge.net/DTD/sodipodi-0.dtd"
   xmlns="http://www.w3.org/2000/svg"
   xmlns:svg="http://www.w3.org/2000/svg">
  <sodipodi:namedview
     id="namedview1"
     pagecolor="#ffffff"
     bordercolor="#000000"
     borderopacity="0.25"
     inkscape:showpageshadow="2"
     inkscape:pageopacity="0.0"
     inkscape:pagecheckerboard="0"
     inkscape:deskcolor="#d1d1d1"
     inkscape:document-units="mm">
    <inkscape:page
       x="1.7928865e-21"
       y="0"
       width="53.089024"
       height="51.298809"
       id="page2"
       margin="0"
       bleed="0" />
  </sodipodi:namedview>
  <defs
     id="defs1" />
  <g
     inkscape:label="图层 1"
     inkscape:groupmode="layer"
     id="layer1"
     transform="translate(-142.34583,-103.71667)">
    <path
       stroke="#000000"
       stroke-width="0.257969"
       d="m 173.77774,120.18648 c 1.12583,-0.66578 1.60137,-1.55626 1.60137,-2.53625 0,-0.28694 0.0406,-13.80458 0.0406,-13.80458 h -13.4017 c 0,0 -0.063,13.63393 -0.063,13.80458 0,0.98724 0.6995,1.88389 1.84076,2.55122 -0.80719,0.11748 -1.60547,0.26133 -2.39483,0.4345 1.26244,0.80679 2.45491,1.74897 3.55804,2.82361 1.56319,1.52056 2.8565,3.20442 3.87183,5.02004 1.01529,-1.81562 2.30942,-3.49951 3.87102,-5.02004 1.10551,-1.07464 2.29883,-2.01843 3.56126,-2.82517 -0.80743,-0.17481 -1.63983,-0.31631 -2.47224,-0.44117 z"
       id="path1" />
    <path
       d="m 186.10563,150.91045 c -0.82915,-1.66241 -0.85188,-3.83604 -0.48366,-5.30416 0.37719,-1.51032 3.95476,-4.36845 3.95476,-4.36845 6.30237,-6.13008 7.74525,-14.8684 3.22389,-19.51652 -4.52294,-4.64772 -13.29597,-3.44339 -19.59811,2.68743 -1.88182,1.83145 -3.32552,3.89498 -4.31244,6.01337 -0.98608,-2.11839 -2.43136,-4.1819 -4.31242,-6.01337 -6.3011,-6.13082 -15.07564,-7.33512 -19.59811,-2.68743 -4.52094,4.64773 -3.07721,13.3867 3.22358,19.51652 0.2845,0.27638 3.42519,2.85813 3.80275,4.36845 0.37676,1.50874 0.4292,3.67755 -0.47718,5.36017 h 0.13616 c -0.0199,0.0114 -0.0394,0.0187 -0.0598,0.0301 5.21468,2.57196 11.08345,4.01892 17.28984,4.01892 6.20141,-0.008 11.9866,-1.53996 17.20577,-4.11208"
       id="path2"
       style="stroke-width:0.264583" />
    <g
       id="g4"
       transform="matrix(0.26458333,0,0,0.26458333,97.168565,52.650337)">
		<path
   stroke="#ffffff"
   stroke-width="3.1741"
   stroke-linecap="round"
   d="m 209.1954,370.2128 c 18.9687,-8.8515 39.9428,-13.7641 62.2548,-13.7641 21.4327,0 42.0035,5.2628 60.3546,12.7379"
   id="path3" />

		<path
   stroke="#ffffff"
   stroke-width="3.1741"
   stroke-linecap="round"
   d="m 340.9221,333.4665 c -19.7552,-6.704 -43.9635,-10.6549 -70.1201,-10.6549 -26.3853,0 -50.7842,4.0248 -70.636,10.8361"
   id="path4" />

	</g>
    <polygon
       fill="none"
       stroke="#ffffff"
       stroke-width="1.9503"
       stroke-linejoin="bevel"
       points="291.623,235.277 249.1192,197.1778 291.623,197.1778 249.1192,235.277 "
       id="polygon4"
       transform="matrix(0.26458333,0,0,0.26458333,97.168565,52.650337)" />
    <path
       fill="none"
       stroke="#ffffff"
       stroke-width="0.839814"
       stroke-linecap="round"
       d="m 184.09953,147.03147 c -4.81311,-1.69003 -9.93388,-2.91581 -15.24547,-2.91581 -5.41388,0 -10.62895,1.26 -15.52017,3.00929"
       id="path5" />
    <polygon
       fill="#ffffff"
       stroke="#000000"
       stroke-width="0.9974"
       points="280.9262,335.2912 270.9531,330.2889 260.98,335.2912 270.9531,340.262 "
       id="polygon5"
       transform="matrix(0.26458333,0,0,0.26458333,97.168565,52.650337)" />
    <polygon
       fill="#ffffff"
       stroke="#000000"
       stroke-width="0.9974"
       points="239.9012,338.5631 229.2674,335.2283 220.2381,341.7722 230.8719,345.0755 "
       id="polygon6"
       transform="matrix(0.26458333,0,0,0.26458333,97.168565,52.650337)" />
    <polygon
       fill="#ffffff"
       stroke="#000000"
       stroke-width="0.9974"
       points="302.005,338.5631 312.6388,335.2283 321.6996,341.7722 311.0343,345.0755 "
       id="polygon7"
       transform="matrix(0.26458333,0,0,0.26458333,97.168565,52.650337)" />
    <rect
       x="163.08136"
       y="104.8203"
       fill="none"
       stroke="#ffffff"
       stroke-width="0.516017"
       stroke-linejoin="bevel"
       width="11.250745"
       height="10.080414"
       id="rect7" />
    <ellipse
       fill="none"
       stroke="#ffffff"
       stroke-width="0.516017"
       cx="168.79997"
       cy="119.48724"
       rx="4.7432117"
       ry="3.5033214"
       id="ellipse7" />
  </g>
</svg>
