<?xml version="1.0" encoding="UTF-8" standalone="no"?>
<!-- Created with Inkscape (http://www.inkscape.org/) -->

<svg
   width="61.88755mm"
   height="57.746719mm"
   viewBox="0 0 61.88755 57.746719"
   version="1.1"
   id="svg1"
   xmlns:inkscape="http://www.inkscape.org/namespaces/inkscape"
   xmlns:sodipodi="http://sodipodi.sourceforge.net/DTD/sodipodi-0.dtd"
   xmlns="http://www.w3.org/2000/svg"
   xmlns:svg="http://www.w3.org/2000/svg">
  <sodipodi:namedview
     id="namedview1"
     pagecolor="#ffffff"
     bordercolor="#000000"
     borderopacity="0.25"
     inkscape:showpageshadow="2"
     inkscape:pageopacity="0.0"
     inkscape:pagecheckerboard="0"
     inkscape:deskcolor="#d1d1d1"
     inkscape:document-units="mm">
    <inkscape:page
       x="0"
       y="0"
       width="61.88755"
       height="57.746719"
       id="page2"
       margin="0"
       bleed="0" />
  </sodipodi:namedview>
  <defs
     id="defs1" />
  <g
     inkscape:label="图层 1"
     inkscape:groupmode="layer"
     id="layer1"
     transform="translate(-70.379165,-105.30417)">
    <path
       fill="#20201e"
       d="m 132.2447,160.5326 c -0.51985,-0.28371 -5.2021,-4.88471 -9.54434,-4.88471 -2.25782,0 -4.02833,0.6812 -5.58908,1.28273 -1.58348,0.60968 -3.0784,1.18517 -5.24232,1.18517 -2.52201,0 -4.61561,-0.7698 -6.4637,-1.44854 -1.49,-0.54626 -2.77682,-1.01936 -4.09376,-1.01936 -1.316012,0 -2.602919,0.4731 -4.09292,1.01936 -1.847268,0.67876 -3.941339,1.44854 -6.463268,1.44854 -2.164318,0 -3.659241,-0.57552 -5.242322,-1.18517 -1.561174,-0.60156 -3.331263,-1.28273 -5.588661,-1.28273 -4.343321,0 -9.025758,4.60095 -9.545161,4.88471 0,0 1.890395,-1.18276 3.649503,-1.18276 1.759532,0 3.283241,1.23396 5.895922,1.23396 1.340088,0 2.432209,0.42026 3.815742,0.95268 1.752626,0.67551 3.93319,1.5144 7.015241,1.5144 3.400372,0 6.154447,-1.01121 8.165545,-1.74937 0.915299,-0.33653 1.952569,-0.71779 2.390749,-0.71779 0.43976,0 1.47619,0.38124 2.39149,0.71779 2.01149,0.73811 4.76517,1.74937 8.16597,1.74937 3.08131,0 5.26269,-0.83889 7.01524,-1.5144 1.38271,-0.53244 2.47523,-0.95268 3.81616,-0.95268 2.61226,0 4.59203,-1.23396 5.89508,-1.23396 1.30304,0 3.67091,1.182 3.67091,1.182 z"
       id="path31"
       style="stroke-width:0.264583" />
    <path
       fill="#ffffff"
       stroke="#20201e"
       stroke-width="1.0986"
       d="m 117.90241,132.30582 c 0,-7.78671 -6.64417,-20.13 -11.7294,-21.79897 -0.1768,-0.0581 -0.35888,-0.10689 -0.54587,-0.14591 0.88683,-0.32883 1.52096,-1.17952 1.52096,-2.18099 0,-1.28524 -1.04251,-2.32648 -2.32648,-2.32648 -1.28439,0 -2.32772,1.04134 -2.32772,2.32648 0,0.89299 0.50479,1.66648 1.24253,2.05745 -1.04251,0.0675 -2.16881,0.33856 -3.3292,0.80598 -0.740143,-0.33655 -1.476584,-0.57756 -2.202125,-0.70967 0.848625,-0.34668 1.4478,-1.18076 1.4478,-2.15376 0,-1.28524 -1.041347,-2.32648 -2.326481,-2.32648 -1.285134,0 -2.326481,1.04134 -2.326481,2.32648 0,0.90757 0.52107,1.69286 1.279472,2.07608 -0.393859,0.0435 -0.781606,0.12517 -1.16078,0.25077 -5.073253,1.66931 -11.569568,13.55569 -11.569568,21.79897 0,6.57391 2.663455,12.23716 5.737834,16.33672 0.45765,1.21531 1.153451,1.25101 1.303893,1.40142 3.97e-4,0 8.2e-4,-7.9e-4 0.0012,-7.9e-4 -0.0029,0.0203 -0.609256,3.96205 -0.668602,4.85216 -0.09144,1.37213 -0.229632,2.99308 -0.229632,2.99308 3.354414,1.47545 7.0299,2.33222 11.02267,2.33222 3.9937,0 7.48797,-0.93969 10.84122,-2.4143 -0.11948,-1.09662 -0.25646,-2.19239 -0.5308,-3.83847 -0.14306,-0.86087 -0.63569,-3.92625 -0.63569,-3.92625 0.14957,-0.14878 1.05431,-1.28358 1.05431,-1.28358 3.26303,-4.12041 6.45112,-9.61427 6.45112,-16.44827 z"
       id="path32" />
    <path
       stroke="#000000"
       stroke-width="0.443574"
       d="m 90.674508,150.04433 c 2.720367,-1.17221 5.848376,-2.19969 9.901452,-2.19969 4.05188,0 7.17865,1.02669 9.89893,2.19721 0.14917,-0.14875 0.5048,-0.53002 1.23928,-1.55835 -2.28869,-2.47689 -5.61956,-3.8377 -11.06844,-3.8377 -5.81385,0 -8.987448,1.51689 -11.27575,3.99704 0.466143,1.20697 1.165357,1.24859 1.315191,1.39843 z"
       id="path33" />
    <path
       fill="#ffffff"
       stroke="#000000"
       stroke-width="0.84365"
       stroke-linejoin="bevel"
       d="m 111.46795,157.80231 c -3.35483,-1.47375 -6.78566,-2.20456 -10.77878,-2.20456 -3.993116,0 -7.731017,0.81291 -11.085113,2.28669 3.35399,1.47545 7.029476,2.33222 11.022673,2.33222 3.99553,0 7.49162,-0.94062 10.8462,-2.41398 z"
       id="path34" />
    <path
       stroke="#000000"
       stroke-width="0.443574"
       d="m 111.37638,148.75409 c 2.11273,-3.5312 4.89236,-10.19111 1.41891,-21.52509 -2.91425,-9.50937 -11.50049,-18.78817 -17.746002,-16.7263 -5.539476,1.82904 -11.569568,14.92747 -11.569568,21.79897 0,6.57391 2.662608,12.23716 5.73659,16.33672 l 22.1669,0.10822 z"
       id="path35" />
    <circle
       stroke="#000000"
       stroke-width="0.443574"
       cx="97.25882"
       cy="108.17445"
       r="2.3267193"
       id="circle35" />
    <path
       stroke="#000000"
       stroke-width="0.443574"
       stroke-linejoin="bevel"
       d="m 110.31921,150.036 -8.2e-4,-0.002 c -2.72036,-1.16978 -5.84954,-2.15008 -9.89893,-2.15008 -4.052653,0 -7.177806,0.98115 -9.898939,2.15251 0,0 -0.60968,3.96124 -0.668999,4.85373 -0.09144,1.37213 -0.229235,2.99307 -0.229235,2.99307 3.353567,-1.47375 7.0925,-2.28668 11.084273,-2.28668 3.91652,0 7.47249,0.78364 10.77878,2.20456 -0.11909,-1.09662 -0.25646,-2.19239 -0.53041,-3.83847 -0.14984,-0.86569 -0.64096,-3.93727 -0.64096,-3.93727 z"
       id="path36" />
    <path
       fill="none"
       stroke="#ffffff"
       stroke-width="0.443574"
       stroke-linecap="round"
       stroke-linejoin="bevel"
       d="m 110.21933,155.34672 c -3.01545,-0.93644 -6.23488,-1.45106 -9.55683,-1.45106 -3.378383,0 -6.831116,0.55034 -9.928064,1.52255"
       id="path37" />
    <g
       id="g39"
       transform="matrix(0.26458333,0,0,0.26458333,92.585911,58.618226)">
		<path
   fill="none"
   stroke="#ffffff"
   stroke-width="1.6765"
   stroke-linecap="round"
   d="m -4.55,344.1631 c 9.5229,-3.8344 20.442,-6.9529 34.1665,-6.9529 13.7978,0 24.7553,3.1524 34.3144,7.0111"
   id="path38" />

		<path
   fill="none"
   stroke="#ffffff"
   stroke-width="1.6765"
   stroke-linecap="round"
   d="M 70.1382,337.3991 C 58.05,327.7306 48.3767,325.1404 30.4755,325.1404 c -14.993,0 -30.4639,3.9694 -37.8758,10.7593"
   id="path39" />

	</g>
    <polygon
       fill="#ffffff"
       stroke="#000000"
       stroke-width="1.6765"
       points="-6.5949,262.1446 -14.9006,270.4503 -6.5949,278.756 -2.4106,274.6031 18.3535,274.6031 18.3535,297.3808 14.2007,301.5336 22.5064,309.8393 30.8121,301.5336 26.6907,297.4123 26.6907,274.6031 47.329,274.6031 51.4818,278.756 59.7875,270.4503 51.4818,262.1446 47.3919,266.266 26.6907,266.266 26.6907,247.5782 30.8121,243.4568 22.5064,235.1512 14.2007,243.4568 18.3535,247.6096 18.3535,266.266 -2.4736,266.266 "
       id="polygon39"
       transform="matrix(0.26458333,0,0,0.26458333,92.585911,58.618226)" />
  </g>
</svg>
