<?xml version="1.0" encoding="UTF-8" standalone="no"?>
<!-- Uploaded to: SVG Repo, www.svgrepo.com, Generator: SVG Repo Mixer Tools -->

<svg
   width="734.375"
   height="734.375"
   viewBox="0 0 470 470"
   version="1.1"
   id="svg1"
   sodipodi:docname="empty-chessboard-svgrepo-com.svg"
   inkscape:version="1.4.2 (f4327f4, 2025-05-13)"
   xmlns:inkscape="http://www.inkscape.org/namespaces/inkscape"
   xmlns:sodipodi="http://sodipodi.sourceforge.net/DTD/sodipodi-0.dtd"
   xmlns="http://www.w3.org/2000/svg"
   xmlns:svg="http://www.w3.org/2000/svg">
  <defs
     id="defs1" />
  <sodipodi:namedview
     id="namedview1"
     pagecolor="#ffffff"
     bordercolor="#000000"
     borderopacity="0.25"
     inkscape:showpageshadow="2"
     inkscape:pageopacity="0.0"
     inkscape:pagecheckerboard="0"
     inkscape:deskcolor="#d1d1d1"
     inkscape:zoom="1.53625"
     inkscape:cx="399.67453"
     inkscape:cy="400"
     inkscape:window-width="2560"
     inkscape:window-height="1506"
     inkscape:window-x="-11"
     inkscape:window-y="-11"
     inkscape:window-maximized="1"
     inkscape:current-layer="svg1" />
  <g
     inkscape:groupmode="layer"
     id="layer2"
     inkscape:label="Layer 2">
    <rect
       style="fill:#ffffff;fill-opacity:1;stroke-width:0.64"
       id="rect2"
       width="498.7453"
       height="483.74777"
       x="-17.497152"
       y="-3.3327909" />
  </g>
  <g
     inkscape:groupmode="layer"
     id="layer1"
     inkscape:label="Layer 1">
    <path
       fill="#000000"
       d="M 0,0 V 58.75 H 58.75 V 0 Z M 58.75,58.75 V 117.5 H 117.5 V 58.75 Z m 58.75,0 h 58.75 V 0 H 117.5 Z m 58.75,0 V 117.5 H 235 V 58.75 Z m 58.75,0 h 58.75 V 0 H 235 Z m 58.75,0 V 117.5 H 352.5 V 58.75 Z m 58.75,0 h 58.75 V 0 H 352.5 Z m 58.75,0 V 117.5 H 470 V 58.75 Z m 0,58.75 H 352.5 v 58.75 h 58.75 z m 0,58.75 V 235 H 470 v -58.75 z m 0,58.75 H 352.5 v 58.75 h 58.75 z m 0,58.75 V 352.5 H 470 v -58.75 z m 0,58.75 H 352.5 v 58.75 h 58.75 z m 0,58.75 V 470 H 470 v -58.75 z m -58.75,0 H 293.75 V 470 h 58.75 z m -58.75,0 V 352.5 H 235 v 58.75 z m -58.75,0 H 176.25 V 470 H 235 Z m -58.75,0 V 352.5 H 117.5 v 58.75 z m -58.75,0 H 58.75 V 470 h 58.75 z m -58.75,0 V 352.5 H 0 v 58.75 z m 0,-58.75 H 117.5 V 293.75 H 58.75 Z m 0,-58.75 V 235 H 0 v 58.75 z m 0,-58.75 H 117.5 V 176.25 H 58.75 Z m 0,-58.75 V 117.5 H 0 v 58.75 z m 58.75,0 h 58.75 V 117.5 H 117.5 Z m 58.75,0 V 235 H 235 v -58.75 z m 58.75,0 h 58.75 V 117.5 H 235 Z m 58.75,0 V 235 h 58.75 v -58.75 z m 0,58.75 H 235 v 58.75 h 58.75 z m 0,58.75 v 58.75 h 58.75 v -58.75 z m -58.75,0 H 176.25 V 352.5 H 235 Z m -58.75,0 V 235 H 117.5 v 58.75 z"
       id="path1" />
  </g>
</svg>
