<?xml version="1.0" standalone="no"?>
<!DOCTYPE svg PUBLIC "-//W3C//DTD SVG 20010904//EN"
 "http://www.w3.org/TR/2001/REC-SVG-20010904/DTD/svg10.dtd">
<svg version="1.0" xmlns="http://www.w3.org/2000/svg"
 width="967.000000pt" height="278.000000pt" viewBox="0 0 967.000000 278.000000"
 preserveAspectRatio="xMidYMid meet">

<g transform="translate(0.000000,278.000000) scale(0.100000,-0.100000)"
fill="#000000" stroke="none">
<path d="M1685 2578 c-3 -35 -5 -246 -3 -471 l3 -407 -342 0 c-320 0 -343 1
-343 18 1 9 20 107 44 217 l43 200 -25 3 c-46 6 -377 -29 -388 -41 -6 -7 -31
-99 -55 -204 l-43 -193 -248 0 -248 0 0 -195 0 -195 201 0 c186 0 200 -1 195
-17 -3 -10 -23 -101 -45 -203 -22 -102 -76 -337 -121 -522 -44 -185 -80 -342
-80 -348 0 -12 373 -13 404 -1 21 8 49 116 211 811 25 107 50 214 56 238 l12
42 386 -2 386 -3 5 -545 5 -545 165 -3 c91 -2 180 0 198 3 l32 6 0 544 0 545
158 0 157 0 43 183 c23 100 42 188 42 195 0 9 -50 12 -198 12 l-199 0 -6 287
c-4 157 -7 369 -7 470 l0 183 -194 0 -194 0 -7 -62z"/>
<path d="M7855 2543 c-26 -54 -54 -113 -61 -130 l-14 -33 -254 0 -253 0 -7
-37 c-8 -49 -8 -277 0 -325 l7 -38 153 0 c85 0 154 -2 154 -4 0 -3 -47 -102
-105 -222 l-105 -217 0 -178 0 -179 410 0 410 0 0 -120 0 -120 -500 0 -500 0
0 -190 0 -190 498 -2 497 -3 3 -168 2 -167 210 0 210 0 0 170 0 170 457 2 457
3 33 180 c18 99 33 183 33 188 0 4 -220 7 -490 7 l-490 0 0 120 0 120 384 0
384 0 5 22 c39 183 68 330 65 333 -1 2 -191 6 -420 10 l-418 8 0 148 0 149
-210 0 -210 0 0 -119 c0 -65 -3 -133 -6 -150 l-6 -31 -159 0 -159 0 218 438
c120 240 234 475 252 522 18 47 37 89 42 95 4 5 8 15 8 22 0 10 -50 13 -239
13 l-239 0 -47 -97z"/>
<path d="M1325 2614 c-157 -18 -594 -69 -815 -94 -96 -12 -206 -24 -245 -28
l-70 -7 -3 -192 -2 -193 22 0 c26 1 87 8 358 44 193 25 670 79 805 91 128 11
115 -13 115 205 l0 190 -22 -1 c-13 -1 -77 -8 -143 -15z"/>
<path d="M3820 2550 l0 -80 -460 0 -460 0 0 -180 0 -180 345 0 345 0 0 -203
c0 -112 3 -259 7 -325 l6 -122 189 0 188 0 0 325 0 325 125 0 125 0 0 -325 0
-325 190 0 190 0 0 325 0 325 309 0 c171 0 312 4 315 9 6 8 59 243 72 314 l6
37 -476 0 -476 0 0 80 0 80 -270 0 -270 0 0 -80z"/>
<path d="M8224 2186 c-52 -106 -94 -196 -94 -200 0 -3 298 -5 662 -4 l662 3
36 170 c20 94 40 182 43 198 l7 27 -610 0 -611 0 -95 -194z"/>
<path d="M3111 1965 c-12 -25 -21 -47 -21 -50 0 -3 -38 -95 -85 -204 -47 -109
-85 -205 -85 -215 0 -15 17 -16 188 -14 l187 3 72 175 c39 96 87 212 107 257
20 45 36 84 36 87 0 3 -85 6 -189 6 l-189 0 -21 -45z"/>
<path d="M4710 2001 c0 -9 141 -359 183 -453 l26 -58 190 0 191 0 -19 48 c-11
26 -49 115 -86 197 -36 83 -78 178 -92 213 l-25 62 -184 0 c-101 0 -184 -4
-184 -9z"/>
<path d="M5660 1325 l0 -215 577 2 576 3 38 200 c21 110 38 206 38 213 1 9
-128 12 -614 12 l-615 0 0 -215z"/>
<path d="M3067 1393 c-6 -6 -10 -330 -4 -335 1 -1 332 -4 734 -7 l733 -6 -222
-112 -221 -113 -38 23 c-22 12 -89 50 -150 85 l-111 62 -346 0 -347 0 99 -55
c55 -30 100 -55 102 -55 2 0 51 -28 111 -63 59 -35 148 -85 196 -111 49 -26
85 -52 80 -56 -4 -4 -53 -31 -108 -60 -193 -101 -451 -243 -553 -304 l-104
-61 39 -8 c21 -4 185 -7 365 -5 l327 3 173 87 c95 48 214 111 263 139 50 28
104 56 120 62 155 52 873 396 928 445 15 13 17 38 17 227 l0 212 -772 6 c-977
9 -1303 9 -1311 0z"/>
<path d="M4485 575 c-129 -63 -261 -119 -307 -129 -16 -4 -28 -10 -28 -14 0
-5 100 -56 223 -115 l222 -107 353 0 c193 0 352 3 352 8 0 9 -499 277 -610
327 -95 43 -160 52 -205 30z"/>
</g>
</svg>
