<?xml version="1.0" standalone="no"?>
<!DOCTYPE svg PUBLIC "-//W3C//DTD SVG 20010904//EN"
 "http://www.w3.org/TR/2001/REC-SVG-20010904/DTD/svg10.dtd">
<svg version="1.0" xmlns="http://www.w3.org/2000/svg"
 width="968.000000pt" height="264.000000pt" viewBox="0 0 968.000000 264.000000"
 preserveAspectRatio="xMidYMid meet">

<g transform="translate(0.000000,264.000000) scale(0.100000,-0.100000)"
fill="#000000" stroke="none">
<path d="M1705 2458 c-3 -35 -5 -246 -3 -471 l3 -407 -342 0 c-320 0 -343 1
-343 18 1 9 20 107 44 217 l43 200 -25 3 c-46 6 -377 -29 -388 -41 -6 -7 -31
-99 -55 -204 l-43 -193 -248 0 -248 0 0 -195 0 -195 201 0 c186 0 200 -1 195
-17 -3 -10 -23 -101 -45 -203 -22 -102 -76 -337 -121 -522 -44 -185 -80 -342
-80 -348 0 -12 373 -13 404 -1 21 8 49 116 211 811 25 107 50 214 56 238 l12
42 386 -2 386 -3 5 -545 5 -545 165 -3 c91 -2 180 0 198 3 l32 6 0 544 0 545
158 0 157 0 43 183 c23 100 42 188 42 195 0 9 -50 12 -198 12 l-199 0 -6 287
c-4 157 -7 369 -7 470 l0 183 -194 0 -194 0 -7 -62z"/>
<path d="M7622 2508 c-5 -7 -54 -96 -107 -198 -54 -102 -109 -204 -122 -228
-14 -24 -24 -45 -22 -47 2 -2 98 -5 213 -6 152 -2 211 0 213 8 3 7 14 27 27
45 l22 33 124 2 c69 2 261 0 428 -5 l302 -7 -45 -67 -45 -68 -658 -2 -657 -3
-3 -357 -2 -358 190 0 c141 0 190 -3 190 -12 0 -7 -95 -108 -212 -225 l-212
-213 224 0 225 1 150 140 c242 226 336 309 350 309 7 0 31 -28 52 -63 46 -71
133 -223 133 -232 0 -3 -101 -5 -224 -5 -123 0 -226 -4 -228 -9 -3 -10 -127
-115 -461 -391 l-235 -195 211 -7 c117 -4 229 -5 249 -2 28 4 59 24 121 77
221 190 303 261 312 271 6 6 57 51 115 100 58 50 117 101 133 115 l27 25 0
-122 0 -122 -36 0 c-61 0 -164 -63 -307 -188 -188 -164 -390 -346 -406 -366
-12 -15 4 -16 215 -16 l229 1 150 139 150 139 3 -77 3 -77 -78 -71 -78 -71
130 -4 c72 -3 199 -3 283 -1 l152 4 0 449 0 449 -59 88 c-32 48 -68 104 -80
125 l-23 37 385 0 c211 0 412 3 446 6 l61 7 0 353 0 354 -230 0 -229 0 43 63
c25 34 96 132 160 217 64 85 116 158 116 162 0 4 -315 5 -700 1 -543 -5 -700
-4 -700 6 0 6 9 29 19 50 l20 38 -151 6 c-214 10 -254 9 -266 -5z m1516 -890
l-3 -103 -340 -3 -340 -2 100 100 99 99 126 4 c69 1 178 4 243 5 l118 2 -3
-102z m-992 70 c-8 -12 -47 -57 -86 -100 l-71 -78 -113 0 c-63 0 -128 3 -145
6 l-31 7 0 87 c0 47 3 90 7 93 3 4 107 7 230 7 l224 0 -15 -22z"/>
<path d="M1345 2494 c-157 -18 -594 -69 -815 -94 -96 -12 -206 -24 -245 -28
l-70 -7 -3 -192 -2 -193 22 0 c26 1 87 8 358 44 193 25 670 79 805 91 128 11
115 -13 115 205 l0 190 -22 -1 c-13 -1 -77 -8 -143 -15z"/>
<path d="M3840 2430 l0 -80 -460 0 -460 0 0 -180 0 -180 345 0 345 0 0 -203
c0 -112 3 -259 7 -325 l6 -122 189 0 188 0 0 325 0 325 125 0 125 0 0 -325 0
-325 190 0 190 0 0 325 0 325 309 0 c171 0 312 4 315 9 6 8 59 243 72 314 l6
37 -476 0 -476 0 0 80 0 80 -270 0 -270 0 0 -80z"/>
<path d="M3131 1845 c-12 -25 -21 -47 -21 -50 0 -3 -38 -95 -85 -204 -47 -109
-85 -205 -85 -215 0 -15 17 -16 188 -14 l187 3 72 175 c39 96 87 212 107 257
20 45 36 84 36 87 0 3 -85 6 -189 6 l-189 0 -21 -45z"/>
<path d="M4730 1881 c0 -9 141 -359 183 -453 l26 -58 190 0 191 0 -19 48 c-11
26 -49 115 -86 197 -36 83 -78 178 -92 213 l-25 62 -184 0 c-101 0 -184 -4
-184 -9z"/>
<path d="M5680 1205 l0 -215 577 2 576 3 38 200 c21 110 38 206 38 213 1 9
-128 12 -614 12 l-615 0 0 -215z"/>
<path d="M3087 1273 c-6 -6 -10 -330 -4 -335 1 -1 332 -4 734 -7 l733 -6 -222
-112 -221 -113 -38 23 c-22 12 -89 50 -150 85 l-111 62 -346 0 -347 0 99 -55
c55 -30 100 -55 102 -55 2 0 51 -28 111 -63 59 -35 148 -85 196 -111 49 -26
85 -52 80 -56 -4 -4 -53 -31 -108 -60 -193 -101 -451 -243 -553 -304 l-104
-61 39 -8 c21 -4 185 -7 365 -5 l327 3 173 87 c95 48 214 111 263 139 50 28
104 56 120 62 155 52 873 396 928 445 15 13 17 38 17 227 l0 212 -772 6 c-977
9 -1303 9 -1311 0z"/>
<path d="M9063 1108 c-33 -40 -102 -122 -151 -182 l-90 -110 23 -51 c12 -28
60 -118 107 -201 46 -82 117 -211 158 -287 l73 -137 214 0 214 0 -67 128 c-37
70 -104 192 -149 272 -157 278 -157 279 -141 302 8 11 72 84 143 162 70 77
134 149 142 159 13 16 2 17 -201 17 l-213 0 -62 -72z"/>
<path d="M4505 455 c-129 -63 -261 -119 -307 -129 -16 -4 -28 -10 -28 -14 0
-5 100 -56 223 -115 l222 -107 353 0 c193 0 352 3 352 8 0 9 -499 277 -610
327 -95 43 -160 52 -205 30z"/>
</g>
</svg>
