<?xml version="1.0" standalone="no"?>
<!DOCTYPE svg PUBLIC "-//W3C//DTD SVG 20010904//EN"
 "http://www.w3.org/TR/2001/REC-SVG-20010904/DTD/svg10.dtd">
<svg version="1.0" xmlns="http://www.w3.org/2000/svg"
 width="973.000000pt" height="267.000000pt" viewBox="0 0 973.000000 267.000000"
 preserveAspectRatio="xMidYMid meet">

<g transform="translate(0.000000,267.000000) scale(0.100000,-0.100000)"
fill="#000000" stroke="none">
<path d="M1705 2478 c-3 -35 -5 -246 -3 -471 l3 -407 -342 0 c-320 0 -343 1
-343 18 1 9 20 107 44 217 l43 200 -25 3 c-46 6 -377 -29 -388 -41 -6 -7 -31
-99 -55 -204 l-43 -193 -248 0 -248 0 0 -195 0 -195 201 0 c186 0 200 -1 195
-17 -3 -10 -23 -101 -45 -203 -22 -102 -76 -337 -121 -522 -44 -185 -80 -342
-80 -348 0 -12 373 -13 404 -1 21 8 49 116 211 811 25 107 50 214 56 238 l12
42 386 -2 386 -3 5 -545 5 -545 165 -3 c91 -2 180 0 198 3 l32 6 0 544 0 545
158 0 157 0 43 183 c23 100 42 188 42 195 0 9 -50 12 -198 12 l-199 0 -6 287
c-4 157 -7 369 -7 470 l0 183 -194 0 -194 0 -7 -62z"/>
<path d="M9375 2530 c-55 -4 -190 -15 -300 -23 -179 -15 -495 -36 -1029 -71
l-180 -11 -7 -30 c-4 -16 -9 -101 -12 -187 l-5 -158 39 0 c21 0 163 11 316 25
440 40 604 52 981 77 l352 22 0 183 0 183 -27 -2 c-16 -1 -73 -5 -128 -8z"/>
<path d="M1345 2514 c-157 -18 -594 -69 -815 -94 -96 -12 -206 -24 -245 -28
l-70 -7 -3 -192 -2 -193 22 0 c26 1 87 8 358 44 193 25 670 79 805 91 128 11
115 -13 115 205 l0 190 -22 -1 c-13 -1 -77 -8 -143 -15z"/>
<path d="M3840 2450 l0 -80 -460 0 -460 0 0 -180 0 -180 345 0 345 0 0 -203
c0 -112 3 -259 7 -325 l6 -122 189 0 188 0 0 325 0 325 125 0 125 0 0 -325 0
-325 190 0 190 0 0 325 0 325 309 0 c171 0 312 4 315 9 6 8 59 243 72 314 l6
37 -476 0 -476 0 0 80 0 80 -270 0 -270 0 0 -80z"/>
<path d="M7376 2378 c-6 -50 -39 -501 -71 -978 -19 -272 -76 -1041 -91 -1212
l-5 -68 194 0 194 0 12 128 c6 70 16 172 21 227 16 169 109 1400 135 1795 3
47 8 102 11 123 l6 37 -200 0 -201 0 -5 -52z"/>
<path d="M3131 1865 c-12 -25 -21 -47 -21 -50 0 -3 -38 -95 -85 -204 -47 -109
-85 -205 -85 -215 0 -15 17 -16 188 -14 l187 3 72 175 c39 96 87 212 107 257
20 45 36 84 36 87 0 3 -85 6 -189 6 l-189 0 -21 -45z"/>
<path d="M4730 1901 c0 -9 141 -359 183 -453 l26 -58 190 0 191 0 -19 48 c-11
26 -49 115 -86 197 -36 83 -78 178 -92 213 l-25 62 -184 0 c-101 0 -184 -4
-184 -9z"/>
<path d="M7810 1661 l0 -191 852 2 853 3 47 180 c26 99 46 180 45 181 -1 1
-406 5 -899 9 l-898 8 0 -192z"/>
<path d="M5680 1225 l0 -215 577 2 576 3 38 200 c21 110 38 206 38 213 1 9
-128 12 -614 12 l-615 0 0 -215z"/>
<path d="M3087 1293 c-6 -6 -10 -330 -4 -335 1 -1 332 -4 734 -7 l733 -6 -222
-112 -221 -113 -38 23 c-22 12 -89 50 -150 85 l-111 62 -346 0 -347 0 99 -55
c55 -30 100 -55 102 -55 2 0 51 -28 111 -63 59 -35 148 -85 196 -111 49 -26
85 -52 80 -56 -4 -4 -53 -31 -108 -60 -193 -101 -451 -243 -553 -304 l-104
-61 39 -8 c21 -4 185 -7 365 -5 l327 3 173 87 c95 48 214 111 263 139 50 28
104 56 120 62 155 52 873 396 928 445 15 13 17 38 17 227 l0 212 -772 6 c-977
9 -1303 9 -1311 0z"/>
<path d="M7807 1274 c-4 -4 -7 -265 -7 -581 l0 -573 865 0 865 0 0 575 0 575
-640 0 -640 0 0 -170 0 -170 428 0 c235 0 437 -3 450 -6 l22 -6 0 -234 0 -234
-485 0 -485 0 -2 413 -3 412 -181 3 c-99 1 -183 -1 -187 -4z"/>
<path d="M4505 475 c-129 -63 -261 -119 -307 -129 -16 -4 -28 -10 -28 -14 0
-5 100 -56 223 -115 l222 -107 353 0 c193 0 352 3 352 8 0 9 -499 277 -610
327 -95 43 -160 52 -205 30z"/>
</g>
</svg>
