<?xml version="1.0" standalone="no"?>
<!DOCTYPE svg PUBLIC "-//W3C//DTD SVG 20010904//EN"
 "http://www.w3.org/TR/2001/REC-SVG-20010904/DTD/svg10.dtd">
<svg version="1.0" xmlns="http://www.w3.org/2000/svg"
 width="535.000000pt" height="275.000000pt" viewBox="0 0 535.000000 275.000000"
 preserveAspectRatio="xMidYMid meet">

<g transform="translate(0.000000,275.000000) scale(0.100000,-0.100000)"
fill="#000000" stroke="none">
<path d="M355 2498 c-3 -7 -25 -103 -50 -213 -99 -433 -126 -549 -180 -790
-31 -137 -58 -258 -61 -267 -5 -16 2 -18 53 -18 32 0 88 -3 126 -7 l67 -6 0
-553 0 -554 205 0 205 0 0 864 0 864 -21 5 c-15 4 -19 11 -15 24 3 10 17 72
30 138 14 66 43 201 66 300 22 99 43 190 45 203 l5 22 -235 0 c-179 0 -237 -3
-240 -12z"/>
<path d="M930 2046 l0 -463 92 -7 c50 -3 376 -6 725 -6 l633 0 0 253 c0 138 3
350 7 470 l6 217 -506 0 -507 0 0 -144 c0 -141 0 -144 23 -150 12 -3 156 -6
320 -6 l297 0 0 -175 0 -175 -350 0 -350 0 0 325 0 325 -195 0 -195 0 0 -464z"/>
<path d="M3449 2400 l-44 -100 -257 0 -258 0 0 -185 0 -185 175 0 c96 0 175
-4 175 -9 0 -12 -135 -376 -269 -725 -34 -87 -61 -163 -61 -167 0 -5 50 -9
110 -9 l110 0 0 -465 0 -465 220 0 220 0 0 693 0 694 79 219 c44 120 86 233
94 249 21 41 183 404 218 488 l28 67 -248 0 -249 0 -43 -100z"/>
<path d="M3933 2288 c-5 -7 -34 -67 -63 -133 -29 -66 -66 -141 -82 -166 -15
-25 -28 -49 -28 -53 0 -3 329 -6 730 -6 402 0 730 2 730 5 0 3 16 83 35 178
19 94 35 175 35 180 0 4 -303 7 -674 7 -527 0 -676 -3 -683 -12z"/>
<path d="M3827 1793 c-9 -8 -9 -210 -1 -280 l7 -53 374 0 c230 0 373 -4 371
-9 -1 -6 -49 -64 -106 -130 -94 -110 -103 -125 -109 -171 l-6 -50 -311 -2
-311 -3 -3 -176 -2 -176 136 -6 c76 -4 215 -7 310 -7 147 0 173 -2 178 -16 3
-9 6 -87 6 -175 0 -183 3 -173 -106 -342 -35 -54 -64 -100 -64 -102 0 -3 133
-5 295 -5 l295 0 0 320 0 320 213 0 213 0 37 168 c21 92 37 175 37 185 0 16
-18 17 -241 17 l-241 0 27 33 c15 17 99 107 186 200 l160 167 -3 148 -3 147
-666 3 c-366 1 -669 -1 -672 -5z"/>
<path d="M1447 1503 c-4 -3 -7 -33 -7 -65 l0 -58 -290 0 -290 0 0 -160 0 -160
259 0 c142 0 273 -3 290 -6 l31 -6 2 -477 3 -476 208 -3 207 -2 0 485 0 485
271 2 271 3 39 150 c21 83 39 153 39 158 0 4 -139 7 -309 7 l-310 0 -7 58 c-4
31 -12 60 -18 64 -14 10 -380 10 -389 1z"/>
<path d="M1020 948 c-18 -45 -160 -715 -172 -818 l-3 -25 167 -3 c152 -2 168
-1 177 15 10 19 19 62 75 333 19 91 49 230 66 310 17 80 32 159 33 175 l2 30
-168 3 c-166 2 -167 2 -177 -20z"/>
<path d="M1916 962 c-2 -4 9 -62 25 -127 29 -119 56 -238 125 -550 20 -88 38
-166 40 -172 2 -10 48 -13 182 -13 98 0 181 2 184 5 3 3 -3 38 -12 78 -10 40
-57 233 -105 430 l-87 357 -173 0 c-96 0 -176 -4 -179 -8z"/>
</g>
</svg>
