<?xml version="1.0" encoding="UTF-8" standalone="no"?>
<!-- Created with Inkscape (http://www.inkscape.org/) -->

<svg
   width="57.011555mm"
   height="53.759392mm"
   viewBox="0 0 57.011555 53.759392"
   version="1.1"
   id="svg1"
   xmlns="http://www.w3.org/2000/svg"
   xmlns:svg="http://www.w3.org/2000/svg">
  <defs
     id="defs1" />
  <g
     id="layer1"
     transform="translate(-83.343751,-40.216667)">
    <path
       fill="#ffffff"
       stroke="#20201e"
       stroke-width="0.924639"
       d="m 97.903049,46.881663 c 0,0 0.923476,-4.962286 0.923476,-5.654516 0,-0.692229 0.691779,-0.808011 1.384355,0.115438 0.6926,0.923052 3.80841,5.423614 3.80841,5.423614 l -6.118172,0.114882 z"
       id="path60" />
    <path
       fill="#ffffff"
       stroke="#20201e"
       stroke-width="0.924639"
       d="m 139.3068,84.944145 c -0.31298,-2.237925 -0.74055,-4.371366 -1.26159,-6.39953 l -1.67211,-0.667385 1.11609,-1.33559 c -0.63569,-2.145268 -1.37465,-4.165256 -2.18747,-6.064224 l -1.58274,-0.447092 0.78282,-1.337998 c -0.85029,-1.805808 -1.76318,-3.490172 -2.71097,-5.058675 l -1.47542,-0.296307 0.53001,-1.218141 c -1.06325,-1.639597 -2.15503,-3.137006 -3.23855,-4.496144 l -1.5616,-0.171106 0.41701,-1.216052 c -1.26733,-1.488413 -2.50211,-2.782967 -3.64419,-3.888898 l -1.56159,-0.08779 0.27231,-1.118923 c -2.78583,-2.520765 -4.75462,-3.747479 -4.75462,-3.747479 l -3.53854,1.077463 c 0,0 -1.69161,-0.923476 -3.07678,-1.846527 0,0 -0.92348,-3.077237 -1.22989,-4.769671 -0.3089,-1.692433 -1.23153,-0.923475 -1.53961,-0.461724 -0.30729,0.461724 -3.50036,3.999865 -3.50036,3.999865 0,0 -1.90955,-0.260932 -3.27025,0 -1.998954,0.38571 -2.922324,1.731486 -5.231819,3.92385 -1.681877,1.59938 -2.691474,3.001222 -3.267868,4.500563 -0.577136,1.500161 0.114617,1.500161 -0.114618,2.884937 -0.232489,1.384776 -6.464115,11.770175 -7.155101,13.039592 -0.693393,1.269339 -2.364687,5.151332 0.922629,7.615979 0.921782,0.692573 1.616022,1.03968 2.192364,1.269338 0,0 0.922628,-0.229632 1.268942,-0.691356 0.06178,-0.0825 0.09268,-0.1329 0.108108,-0.160946 0.01138,-0.03088 0.01707,-0.03291 0,0 -0.03495,0.08983 -0.115437,0.42717 0.238178,0.852302 0.577162,0.692997 1.318551,0.641377 1.73064,0.692997 0.615368,0.07723 1.730666,-0.460904 2.654855,-1.846527 0.923476,-1.384776 1.500585,-1.846951 2.193211,-2.654538 0.690959,-0.807614 4.510799,-2.594769 6.000799,-5.077328 0.34547,-0.575918 1.15348,-0.346287 1.7298,0.115835 0.57716,0.461724 3.80841,0.577559 5.19279,-1.731487 0,0 0.65437,6.070706 -2.07693,10.271019 -4.50014,6.923829 -12.116459,8.653674 -14.42471,15.117286 h 47.31295 c 0,-2.233427 -0.11787,-4.377848 -0.33084,-6.440566 l -1.57289,-0.829972 1.35684,-1.281906 z"
       id="path61" />
    <path
       fill="none"
       stroke="#20201e"
       stroke-width="0.710142"
       d="m 114.92571,50.011499 c 0,0 20.15497,15.079821 20.15497,42.312722"
       id="path62" />
    <path
       fill="none"
       stroke="#20201e"
       stroke-width="0.710142"
       d="m 89.33764,77.777138 c 0.01664,-0.03328 0.01664,-0.03328 0,0 z"
       id="path63" />
    <path
       fill="none"
       stroke="#20201e"
       stroke-width="0.710142"
       d="m 110.77201,60.471483 c 0.38449,4.3071 -1.61602,7.384336 -1.69246,7.653364 0,0 4.84727,-2.499624 5.30826,-5.808503"
       id="path64" />
    <path
       fill="none"
       stroke="#20201e"
       stroke-width="0.710142"
       d="m 109.08225,68.129583 c 0,0 3.23122,1.57824 5.61631,0.577983"
       id="path65" />
    <path
       fill="none"
       stroke="#20201e"
       stroke-width="0.710142"
       d="m 89.229426,77.935306 c 0,0 2.154158,-2.769896 2.77114,-4.039235"
       id="path66" />
    <path
       fill="none"
       stroke="#20201e"
       stroke-width="0.710142"
       d="m 102.50624,52.204895 c 0,0 -3.54827,0.01667 -4.731037,1.961144 -1.615202,2.654538 0.230028,3.000402 0.230028,3.000402 0,0 1.846104,0.577559 3.115839,-1.153451 1.35184,-1.843273 0.23088,-3.000402 0.23088,-3.000402 l 1.14871,-0.808275 z"
       id="path67" />
    <path
       fill="none"
       stroke="#20201e"
       stroke-width="0.710142"
       d="m 85.308777,71.933683 c 1.269762,-0.34589 2.077773,-0.230055 2.654141,0.115835 0,0 -0.576342,-1.731063 0.460904,-3.231648 1.039654,-1.500161 2.769579,-1.616022 4.270164,-4.500562"
       id="path68" />
    <line
       fill="none"
       stroke="#20201e"
       stroke-width="0.710142"
       x1="119.0045"
       y1="53.819752"
       x2="121.19371"
       y2="52.435452"
       id="line68" />
    <line
       fill="none"
       stroke="#20201e"
       stroke-width="0.710142"
       x1="123.50777"
       y1="58.781696"
       x2="125.697"
       y2="57.743683"
       id="line69" />
    <line
       fill="none"
       stroke="#20201e"
       stroke-width="0.710142"
       x1="127.54494"
       y1="64.541939"
       x2="130.08377"
       y2="63.501438"
       id="line70" />
    <line
       fill="none"
       stroke="#20201e"
       stroke-width="0.710142"
       x1="130.77466"
       y1="71.126251"
       x2="133.43002"
       y2="70.202278"
       id="line71" />
    <line
       fill="none"
       stroke="#20201e"
       stroke-width="0.710142"
       x1="133.31351"
       y1="78.859261"
       x2="136.08536"
       y2="78.051826"
       id="line72" />
    <line
       fill="none"
       stroke="#20201e"
       stroke-width="0.710142"
       x1="134.81181"
       y1="86.708832"
       x2="137.70024"
       y2="86.359215"
       id="line73" />
  </g>
</svg>
