<?xml version="1.0" encoding="UTF-8" standalone="no"?>
<!-- Created with Inkscape (http://www.inkscape.org/) -->

<svg
   width="62.983749mm"
   height="58.294773mm"
   viewBox="0 0 62.983749 58.294773"
   version="1.1"
   id="svg1"
   xmlns="http://www.w3.org/2000/svg"
   xmlns:svg="http://www.w3.org/2000/svg">
  <defs
     id="defs1" />
  <g
     id="layer1"
     transform="translate(-11.112502,-48.418751)">
    <path
       fill="#ffffff"
       stroke="#20201e"
       stroke-width="1.0986"
       stroke-linecap="round"
       stroke-linejoin="round"
       d="m 73.525513,103.64512 c -0.519853,-0.28329 -5.202105,-4.884284 -9.545161,-4.884284 -2.257399,0 -4.027911,0.681619 -5.589085,1.282304 -1.583161,0.60968 -3.078056,1.1856 -5.241978,1.1856 -2.522008,0 -4.615603,-0.76941 -6.464114,-1.448227 -1.489657,-0.547078 -2.776829,-1.019783 -4.093343,-1.019783 -1.316011,0 -2.602494,0.472705 -4.092522,1.019783 -1.847268,0.678767 -3.941339,1.448227 -6.463691,1.448227 -2.163921,0 -3.65924,-0.57595 -5.242322,-1.1856 -1.561174,-0.600738 -3.331607,-1.282304 -5.589429,-1.282304 -4.342473,0 -9.02491,4.600944 -9.54434,4.884284 0,0 1.992762,-1.18234 3.649503,-1.18234 1.656742,0 3.282844,1.23354 5.895076,1.23354 1.340829,0 2.432949,0.42066 3.816561,0.95351 1.752627,0.67471 3.933613,1.51439 7.015242,1.51439 3.399949,0 6.154446,-1.01121 8.165544,-1.74971 0.915723,-0.33695 1.952572,-0.71819 2.390749,-0.71819 0.439764,0 1.47619,0.38124 2.391489,0.71819 2.011098,0.7385 4.765172,1.74971 8.165968,1.74971 3.080887,0 5.262271,-0.83973 7.015242,-1.51439 1.382289,-0.53285 2.475229,-0.95351 3.815741,-0.95351 2.612654,0 3.690117,-1.23354 5.895499,-1.23354 2.222526,0 3.670908,1.182 3.670908,1.182 z"
       id="path40" />
    <path
       fill="#ffffff"
       stroke="#20201e"
       stroke-width="1.0986"
       d="m 47.379732,53.621015 c -0.176397,-0.05773 -0.358881,-0.106495 -0.544644,-0.145495 0.88601,-0.329221 1.519713,-1.179512 1.519713,-2.180987 0,-1.28524 -1.041347,-2.326481 -2.326481,-2.326481 -1.285134,0 -2.326905,1.041347 -2.326905,2.326481 0,0.892996 0.503185,1.666479 1.24169,2.057453 -6.677951,0.433679 -16.815382,9.230519 -17.138359,24.124708 -0.128428,5.917883 0.621877,10.762139 2.68867,14.2807 L 52.83761,91.598062 c 3.266625,-4.121388 6.270678,-9.337886 6.270678,-16.177736 0,-9.099841 -6.642576,-20.135823 -11.728556,-21.805635 z"
       id="path41" />
    <path
       fill="#ffffff"
       stroke="#20201e"
       stroke-width="1.0986"
       d="m 54.072262,70.348158 c -2.456577,-8.015949 -8.941673,-15.863094 -14.660271,-16.89944 0.849868,-0.346684 1.448223,-1.180756 1.448223,-2.153761 0,-1.28524 -1.041347,-2.326481 -2.326481,-2.326481 -1.284817,0 -2.326905,1.041347 -2.326905,2.326481 0,0.907574 0.521467,1.692857 1.280319,2.076106 -0.394653,0.04307 -0.782003,0.125174 -1.16078,0.250349 -5.073253,1.669706 -11.570388,12.887271 -11.570388,21.799814 0,6.57389 2.663455,12.237164 5.73741,16.33675 l 22.344195,-0.159332 c 2.114285,-3.529382 4.703074,-9.922245 1.231953,-21.252074 z"
       id="path42" />
    <path
       fill="#ffffff"
       stroke="#000000"
       stroke-width="0.84365"
       stroke-linejoin="bevel"
       d="m 52.765379,100.92317 c -2.807705,-1.288045 -6.78524,-2.204959 -10.777114,-2.204959 -3.9937,0 -7.732263,0.81288 -11.085936,2.287459 3.353567,1.47375 7.0299,2.33098 11.022674,2.33098 3.995526,0 7.491624,-0.94062 10.846197,-2.41396 z"
       id="path43" />
    <path
       fill="#ffffff"
       stroke="#20201e"
       stroke-width="1.0986"
       stroke-linejoin="bevel"
       d="m 51.600022,93.156829 -0.002,-0.0029 c -2.720366,-1.169352 -5.849964,-2.149687 -9.898935,-2.149687 -4.052649,0 -7.177802,0.981155 -9.898936,2.152518 0,0 -0.609679,3.960416 -0.668602,4.854575 -0.09186,1.370965 -0.229632,2.993075 -0.229632,2.993075 3.353568,-1.474605 7.092077,-2.287458 11.085936,-2.287458 3.915278,0 7.471304,0.78322 10.777114,2.204958 -0.118692,-1.097438 -0.256064,-2.193951 -0.530013,-3.839289 -0.149834,-0.874024 -0.640953,-3.937264 -0.640953,-3.937264 z"
       id="path44" />
    <path
       fill="#ffffff"
       stroke="#20201e"
       stroke-width="1.0986"
       stroke-linejoin="bevel"
       d="m 30.898149,101.00638 c 3.353567,-1.474601 7.092077,-2.287454 11.085935,-2.287454 3.915278,0 7.471331,0.783219 10.777114,2.204954 -0.08496,-0.91813 -0.288157,-1.49042 -0.416189,-2.662181 -3.32187,-1.16369 -6.689699,-1.757442 -10.412518,-1.757442 -3.764968,0 -7.495699,0.683631 -10.849531,1.872483 -0.01664,1.032193 -0.191452,2.63041 -0.191452,2.63041 z"
       id="path45" />
    <path
       fill="#ffffff"
       stroke="#20201e"
       stroke-width="1.0986"
       d="m 31.79715,93.156829 c 2.72079,-1.170517 5.8488,-2.172891 9.902269,-2.198873 3.451146,-0.02275 7.179046,1.026689 9.899782,2.197206 0.149172,-0.149569 0.781183,-0.341419 1.238859,-1.558343 -2.287852,-2.476897 -5.689468,-3.77063 -11.138376,-3.77063 -5.814245,0 -8.918363,1.449784 -11.205819,3.929935 0.449501,1.215311 1.148715,1.248596 1.298549,1.398429 z"
       id="path46" />
    <line
       fill="none"
       stroke="#000000"
       stroke-width="0.84365"
       x1="41.702755"
       y1="87.829468"
       x2="41.702755"
       y2="90.959305"
       id="line46" />
    <polygon
       fill="#ffffff"
       stroke="#000000"
       stroke-width="2.4221"
       points="-9.8669,-7.9787 -18.1726,0.327 -9.8669,8.6326 -5.714,4.4798 15.0501,4.4798 15.0501,27.289 10.8973,31.4418 19.203,39.7475 27.5087,31.4418 23.3873,27.3204 23.3873,4.4798 44.0571,4.4798 48.2099,8.6326 56.5156,0.327 48.2099,-7.9787 44.0886,-3.8573 23.3873,-3.8573 23.3873,-22.5262 27.5087,-26.6476 19.203,-34.947 10.8973,-26.6476 15.0501,-22.4822 15.0501,-3.8573 -5.7455,-3.8573 "
       id="polygon46"
       transform="matrix(0.26458333,0,0,0.26458333,34.732411,73.200869)" />
  </g>
</svg>
