<?xml version="1.0" encoding="UTF-8" standalone="no"?>
<!-- Created with Inkscape (http://www.inkscape.org/) -->

<svg
   width="34.969902mm"
   height="52.598396mm"
   viewBox="0 0 34.969902 52.598396"
   version="1.1"
   id="svg1"
   xmlns="http://www.w3.org/2000/svg"
   xmlns:svg="http://www.w3.org/2000/svg">
  <defs
     id="defs1" />
  <g
     id="layer1"
     transform="translate(-93.397904,-38.100002)">
    <path
       fill="#ffffff"
       stroke="#000000"
       stroke-width="0.924639"
       stroke-linejoin="round"
       d="m 117.49633,82.756282 c -3.1215,-6.197494 -2.80609,-17.235726 -2.54513,-21.511789 4.9367,-0.338561 8.48717,-1.273837 8.48717,-2.375694 0,-1.081537 -3.41743,-2.003346 -8.21105,-2.356538 3.06134,-1.577393 5.15617,-4.76758 5.15617,-8.448886 0,-5.247217 -4.25225,-9.501055 -9.5002,-9.501055 -5.24796,0 -9.50021,4.253917 -9.50021,9.501055 0,3.681227 2.09396,6.871414 5.15614,8.448886 -4.79282,0.353192 -8.211816,1.275001 -8.211816,2.356538 0,1.101857 3.552376,2.037133 8.488016,2.375694 0.26175,4.276222 0.57714,15.314559 -2.54434,21.511789 -6.117851,1.229862 -10.410848,4.116467 -10.410848,7.479797 h 34.045258 c 0,-3.362907 -4.28688,-6.251337 -10.405,-7.483316 z"
       id="path74" />
  </g>
</svg>
