<?xml version="1.0" encoding="UTF-8" standalone="no"?>
<!-- Created with Inkscape (http://www.inkscape.org/) -->

<svg
   width="54.095062mm"
   height="52.178146mm"
   viewBox="0 0 54.095062 52.178146"
   version="1.1"
   id="svg1"
   xmlns="http://www.w3.org/2000/svg"
   xmlns:svg="http://www.w3.org/2000/svg">
  <defs
     id="defs1" />
  <g
     id="layer1"
     transform="translate(-46.302079,-87.841667)">
    <path
       fill="#ffffff"
       stroke="#20201e"
       stroke-width="1.0078"
       d="M 79.939197,88.345567 H 66.538342 v 14.005193 c 0,2.06187 3.015774,3.73523 6.73399,3.73523 3.720597,0 6.640512,-1.67331 6.640512,-3.73523 0,-0.1823 0.02498,-14.005193 0.02498,-14.005193 z"
       id="path7" />
    <rect
       x="66.537498"
       y="88.345566"
       fill="#ffffff"
       stroke="#20201e"
       stroke-width="1.0078"
       width="13.400854"
       height="12.008247"
       id="rect8" />
    <line
       fill="none"
       stroke="#20201e"
       stroke-width="1.0078"
       x1="66.537498"
       y1="88.345566"
       x2="79.939201"
       y2="100.35297"
       id="line8" />
    <line
       fill="none"
       stroke="#20201e"
       stroke-width="1.0078"
       x1="79.939201"
       y1="88.345566"
       x2="66.537498"
       y2="100.35297"
       id="line9" />
    <path
       fill="#ffffff"
       stroke="#20201e"
       stroke-width="1.0078"
       stroke-linejoin="round"
       d="m 90.544014,135.37216 c -5.213932,-2.57281 -10.881148,-3.92544 -17.088405,-3.92544 -6.207231,0 -12.143079,1.44246 -17.358096,4.01484 5.215097,2.57278 11.050138,4.05432 17.256522,4.05432 6.209718,0.008 11.978296,-1.56493 17.189106,-4.13705 z"
       id="path9" />
    <path
       fill="#ffffff"
       stroke="#20201e"
       stroke-width="1.0078"
       stroke-linejoin="bevel"
       d="m 93.149445,126.5487 c 0.299138,-0.26175 0.595842,-0.52959 0.886831,-0.81208 6.301554,-6.13125 7.745254,-14.86922 3.223895,-19.51652 -4.522946,-4.64772 -13.295974,-3.44339 -19.597264,2.68743 -1.882643,1.83105 -3.327188,3.89541 -4.313185,6.01337 -0.985229,-2.11796 -2.430515,-4.18232 -4.312417,-6.01337 -6.301131,-6.13082 -15.076487,-7.33512 -19.597264,-2.68743 -4.522523,4.6473 -3.079221,13.38588 3.223154,19.51652 0.291836,0.28329 0.589757,0.55234 0.890932,0.81412 5.441077,-2.04322 12.318735,-3.26419 19.800384,-3.26419 7.474982,0 14.35063,1.22364 19.786203,3.26302 z"
       id="path10" />
    <path
       fill="#ffffff"
       stroke="#20201e"
       stroke-width="1.0078"
       d="m 73.354882,114.92836 c 0.986075,-2.11839 2.430515,-4.18232 4.313184,-6.01252 1.533949,-1.49408 3.216646,-2.69317 4.948899,-3.58849 -2.872793,-0.80802 -5.992627,-1.25143 -9.257162,-1.25143 -3.266175,0 -6.38937,0.44466 -9.262957,1.25394 1.72982,0.89501 3.411697,2.09317 4.945645,3.58608 1.88124,1.83129 3.321288,3.89565 4.311835,6.00996 z"
       id="path11" />
    <path
       fill="#ffffff"
       stroke="#20201e"
       stroke-width="1.0078"
       stroke-linejoin="bevel"
       d="m 93.074515,126.5487 -0.0033,-0.004 c -5.438246,-2.04081 -12.312068,-3.25969 -19.787049,-3.25969 -7.481465,0 -14.358964,1.22097 -19.799538,3.26419 0,0 2.609744,2.04404 2.98741,3.55393 0.37719,1.50874 0.538956,3.67266 -0.367824,5.35493 5.214356,-2.57238 11.150891,-4.01484 17.358122,-4.01484 6.088512,0 11.949959,1.44489 17.088405,3.92544 -0.829151,-1.66116 -0.830791,-3.79825 -0.463364,-5.26553 0.374597,-1.49833 2.988336,-3.54602 2.988336,-3.54602 z"
       id="path12" />
    <path
       fill="#ffffff"
       stroke="#20201e"
       stroke-width="1.0078"
       stroke-linejoin="bevel"
       d="m 56.099154,135.46373 c 5.214329,-2.57238 11.150864,-4.01484 17.358095,-4.01484 6.088512,0 11.949139,1.44489 17.088405,3.92544 -0.352795,-0.70967 -0.723476,-2.52201 -0.66413,-3.5328 -5.165143,-2.03057 -10.719673,-3.14065 -16.506534,-3.14065 -5.853615,0 -11.467174,1.13315 -16.68137,3.2064 0.06659,1.87291 -0.199787,2.81353 -0.591,3.54603 z"
       id="path13" />
    <polygon
       points="280.8004,58.4352 271.079,53.5588 261.3261,58.4352 271.079,63.3117 "
       id="polygon13"
       transform="matrix(0.26458333,0,0,0.26458333,1.6652083,110.60491)" />
    <polygon
       points="240.6878,61.6443 230.3056,58.4038 221.4651,64.7904 231.8472,68.0308 "
       id="polygon14"
       transform="matrix(0.26458333,0,0,0.26458333,1.6652083,110.60491)" />
    <polygon
       points="301.4388,61.6443 311.8208,58.4038 320.6613,64.7904 310.2793,68.0308 "
       id="polygon15"
       transform="matrix(0.26458333,0,0,0.26458333,1.6652083,110.60491)" />
    <ellipse
       fill="#ffffff"
       stroke="#20201e"
       stroke-width="1.0078"
       cx="73.354881"
       cy="104.2661"
       rx="4.7440324"
       ry="3.5029244"
       id="ellipse15" />
  </g>
</svg>
