<?xml version="1.0" encoding="UTF-8" standalone="no"?>
<!-- Created with Inkscape (http://www.inkscape.org/) -->

<svg
   width="59.178459mm"
   height="53.110863mm"
   viewBox="0 0 59.178459 53.110863"
   version="1.1"
   id="svg1"
   xmlns="http://www.w3.org/2000/svg"
   xmlns:svg="http://www.w3.org/2000/svg">
  <defs
     id="defs1" />
  <g
     id="layer1"
     transform="translate(-51.329123,-75.406209)">
    <path
       fill="#ffffff"
       stroke="#20201e"
       stroke-width="0.924639"
       stroke-linejoin="bevel"
       d="m 97.912627,124.25321 c -5.049679,-2.36103 -10.584021,-3.60071 -16.693833,-3.60071 -6.109837,0 -12.032376,1.3535 -17.24824,3.71494 5.049679,2.35902 10.777961,3.68728 16.888619,3.68728 6.118145,0.008 11.845104,-1.44005 17.055914,-3.79576 z"
       id="path20" />
    <path
       fill="#ffffff"
       stroke="#20201e"
       stroke-width="0.924639"
       stroke-linejoin="bevel"
       d="m 97.53803,113.65671 -0.0033,-0.006 c -4.539165,-1.87124 -9.820698,-3.00972 -16.678036,-3.00972 -6.865647,0 -12.173903,1.13922 -16.84618,3.01546 0,0 0.509694,4.33149 0.530807,5.76381 0.02519,1.61319 -0.425952,4.91885 -0.425952,4.91885 5.215493,-2.36144 10.99603,-3.68888 17.105868,-3.68888 5.992627,0 12.08315,1.22986 16.693832,3.60072 -0.757502,-1.51498 -0.374597,-10.58818 -0.374597,-10.58818 z"
       id="path21" />
    <path
       fill="#ffffff"
       stroke="#20201e"
       stroke-width="0.924639"
       stroke-linejoin="bevel"
       d="m 64.133723,124.31148 c 4.909079,-2.33466 10.977721,-3.66126 17.087585,-3.66126 5.992627,0 11.02352,0.84498 16.693832,3.60072 -0.228414,-0.63691 -0.381264,-2.61549 -0.430847,-3.33327 -5.018828,-1.86442 -10.554044,-2.92275 -16.251026,-2.92275 -5.760138,0 -11.555412,1.11609 -16.754607,3.01871 -0.108214,0.74083 -0.341286,3.28798 -0.341286,3.28798 z"
       id="path22" />
    <path
       fill="#ffffff"
       stroke="#20201e"
       stroke-width="0.924639"
       d="m 108.80044,86.041746 c -1.21364,-0.708845 -2.77273,-0.299138 -3.4816,0.916146 -0.60886,1.041347 -0.39182,2.33299 0.44628,3.128434 -3.46779,4.203461 -9.797366,11.872564 -11.324858,13.732984 -0.448734,-0.20037 -0.913712,-0.3906 -1.397371,-0.56822 0.137372,-1.42666 1.13964,-12.312912 1.671294,-18.103107 1.155118,0.02641 2.220859,-0.738505 2.522431,-1.904629 0.351976,-1.361969 -0.464978,-2.75127 -1.827397,-3.103615 -1.359959,-0.352399 -2.74918,0.465375 -3.102028,1.826551 -0.302393,1.166521 0.257677,2.352542 1.281165,2.889435 -2.507774,5.691875 -7.373752,16.737965 -7.385896,16.783735 -0.0024,0.011 -7.94e-4,0.0224 -0.0033,0.0337 -0.442198,-0.0524 -0.896673,-0.0992 -1.359958,-0.13737 -0.09186,-0.61252 -2.178553,-13.417502 -3.266175,-20.086721 1.250288,-0.29263 2.18096,-1.411579 2.18096,-2.75127 0,-1.561597 -1.265661,-2.829269 -2.828078,-2.829269 -1.562418,0 -2.828846,1.267751 -2.828846,2.829269 0,1.339665 0.933212,2.458587 2.182654,2.75127 -1.082808,6.639321 -3.156453,19.357521 -3.265329,20.075891 -0.483685,0.039 -0.956786,0.085 -1.418511,0.13941 -0.0033,-0.0162 -0.0024,-0.0301 -0.0073,-0.0447 -0.01138,-0.0459 -4.878229,-11.093425 -7.384336,-16.784586 1.021795,-0.536522 1.581071,-1.722067 1.279499,-2.889435 -0.352002,-1.361149 -1.74207,-2.178976 -3.102795,-1.826551 -1.360726,0.352451 -2.178553,1.741646 -1.825784,3.102371 0.302392,1.167686 1.366467,1.931829 2.521585,1.905027 0.531627,5.783712 1.530694,16.647234 1.67132,18.096444 -0.474742,0.17314 -0.931545,0.35808 -1.372129,0.55276 -1.589246,-1.93309 -7.84688,-9.517693 -11.289877,-13.688849 0.839708,-0.795417 1.055979,-2.087086 0.448707,-3.128433 -0.708025,-1.215311 -2.267982,-1.625018 -3.482446,-0.916146 -1.213643,0.708421 -1.624197,2.267558 -0.916146,3.482842 0.608859,1.040501 1.841209,1.48799 2.94595,1.148213 2.070444,5.392314 8.753555,22.747073 9.009089,22.986813 4.606687,-1.87492 9.903936,-3.01546 16.767942,-3.01546 6.860805,0 12.156414,1.13922 16.763762,3.01379 0.25363,-0.24021 7.024982,-17.45215 9.148952,-22.985143 1.10551,0.339777 2.33704,-0.107712 2.94513,-1.148213 0.68257,-1.214464 0.27466,-2.773574 -0.94062,-3.481943 z"
       id="path23" />
    <polygon
       points="517.4178,63.6578 508.4514,59.1903 499.5166,63.6578 508.4514,68.1252 "
       id="polygon23"
       transform="matrix(0.26458333,0,0,0.26458333,-53.579533,97.63801)" />
    <polygon
       points="480.6085,66.5522 471.0759,63.5948 462.959,69.4466 472.4917,72.4039 "
       id="polygon24"
       transform="matrix(0.26458333,0,0,0.26458333,-53.579533,97.63801)" />
    <polygon
       points="536.3259,66.6151 545.8585,63.6263 553.9753,69.478 544.4427,72.4668 "
       id="polygon25"
       transform="matrix(0.26458333,0,0,0.26458333,-53.579533,97.63801)" />
  </g>
</svg>
